<?xml version="1.0" standalone="no"?>
<!DOCTYPE svg PUBLIC "-//W3C//DTD SVG 20010904//EN"
 "http://www.w3.org/TR/2001/REC-SVG-20010904/DTD/svg10.dtd">
<svg version="1.0" xmlns="http://www.w3.org/2000/svg"
 width="512.000000pt" height="512.000000pt" viewBox="0 0 512.000000 512.000000"
 preserveAspectRatio="xMidYMid meet">
<metadata>
Created by potrace 1.11, written by Peter Selinger 2001-2013
</metadata>
<g transform="translate(0.000000,512.000000) scale(0.100000,-0.100000)"
fill="#000000" stroke="none">
<path d="M2455 5102 c-44 -18 -125 -93 -125 -116 0 -8 -5 -18 -10 -21 -6 -4
-8 -10 -5 -15 3 -5 1 -11 -4 -14 -5 -4 -8 -34 -7 -69 3 -72 27 -124 82 -180
l38 -38 -1 -119 c-1 -102 1 -119 16 -122 9 -2 61 -4 116 -3 l100 0 1 123 c0
96 3 125 15 132 38 24 52 39 80 81 31 48 38 71 39 124 3 99 -51 189 -138 231
-49 24 -146 27 -197 6z"/>
<path d="M2487 4274 c-1 -1 -29 -4 -62 -8 -33 -3 -73 -8 -90 -12 -16 -3 -41
-8 -55 -9 -14 -2 -25 -4 -25 -5 0 -1 -7 -3 -15 -5 -8 -2 -28 -6 -45 -10 -48
-10 -159 -42 -185 -52 -8 -3 -17 -7 -20 -8 -28 -7 -67 -23 -130 -53 -41 -19
-77 -34 -79 -33 -2 2 -7 -1 -10 -6 -3 -4 -35 -28 -71 -53 -36 -24 -77 -56 -92
-70 -15 -14 -45 -42 -67 -62 -22 -21 -38 -38 -36 -38 1 0 -11 -15 -27 -32 -67
-71 -205 -302 -222 -370 -3 -16 -11 -28 -17 -28 -6 0 -7 -4 -4 -10 3 -5 -1
-23 -10 -40 -8 -16 -15 -32 -15 -35 0 -3 0 -6 -1 -7 -1 -4 -9 -36 -12 -50 -1
-7 -6 -19 -10 -25 -5 -7 -5 -17 -2 -23 3 -5 2 -10 -3 -10 -5 0 -9 -6 -9 -12 0
-7 -8 -49 -17 -93 -9 -44 -18 -91 -20 -105 -3 -14 -5 -151 -5 -305 l-1 -281
-56 -12 c-58 -12 -144 -50 -144 -64 0 -4 -5 -8 -10 -8 -18 0 -78 -71 -108
-129 -17 -31 -34 -83 -39 -116 -4 -33 -8 -250 -8 -482 1 -290 -2 -420 -10
-415 -6 4 -6 1 1 -9 6 -8 10 -55 10 -111 -1 -96 -1 -97 -31 -120 -33 -25 -75
-65 -75 -73 -1 -2 -8 -21 -16 -40 -65 -155 59 -337 228 -336 176 1 295 189
222 349 -17 37 -66 91 -99 110 -17 9 -18 33 -18 356 0 191 3 349 6 353 4 3 13
0 21 -6 8 -7 27 -14 43 -16 15 -2 29 -4 31 -6 3 -3 21 -6 37 -8 13 -1 15 -29
14 -203 -1 -210 12 -314 48 -396 45 -102 60 -131 96 -186 36 -54 157 -186 171
-186 3 0 15 -8 25 -18 36 -32 46 -38 131 -79 83 -41 150 -65 220 -79 19 -4
343 -9 720 -10 686 -3 721 -2 835 30 6 2 24 7 40 11 17 5 45 16 63 26 17 10
32 16 32 12 0 -3 9 2 21 13 12 10 23 18 25 17 7 -4 104 60 104 68 0 5 5 9 11
9 16 0 134 122 167 173 15 23 31 45 37 49 7 5 7 8 0 8 -5 0 -1 7 9 15 11 8 16
15 12 15 -4 0 2 16 13 36 12 20 23 43 25 52 1 10 9 31 15 47 33 78 43 171 42
373 0 152 3 202 12 203 36 2 73 12 84 21 7 6 13 7 13 4 0 -4 9 -2 20 4 16 9
20 8 21 -7 0 -10 1 -168 1 -352 1 -318 0 -334 -18 -344 -33 -18 -85 -78 -101
-115 -20 -48 -23 -118 -8 -168 14 -47 59 -117 68 -107 4 3 7 2 7 -4 0 -6 15
-20 34 -31 125 -74 287 -22 346 111 49 111 12 239 -90 310 l-25 17 0 354 c-1
221 3 352 9 349 5 -4 6 -1 0 8 -5 8 -9 100 -10 204 -1 246 -20 316 -111 410
-51 52 -143 101 -210 111 l-43 6 -1 282 c0 154 -2 290 -5 301 -2 11 -6 39 -9
62 -4 23 -13 68 -21 100 -8 32 -16 66 -18 75 -35 139 -158 408 -219 476 -11
12 -16 22 -11 22 5 0 4 4 -1 8 -6 4 -30 31 -55 61 -90 109 -238 232 -328 272
-17 7 -32 17 -32 21 0 5 -8 8 -18 8 -10 0 -22 4 -28 9 -23 21 -295 109 -359
116 -11 1 -20 3 -20 4 0 4 -37 10 -85 15 -25 3 -45 6 -45 7 0 5 -241 19 -248
13z m203 -424 c126 -18 147 -22 185 -31 22 -6 47 -13 55 -16 8 -4 17 -7 20 -7
43 -10 100 -32 100 -38 0 -4 8 -8 18 -8 19 0 152 -73 198 -109 59 -46 113
-102 148 -156 20 -30 36 -57 36 -61 -1 -4 2 -10 7 -13 24 -16 75 -180 90 -286
6 -44 6 -151 0 -175 -22 -97 -78 -179 -143 -213 -81 -42 -270 -59 -404 -37
-30 5 -84 12 -120 15 -36 3 -81 8 -100 10 -136 17 -244 20 -330 11 -25 -2 -74
-7 -110 -10 -83 -8 -159 -17 -185 -23 -52 -12 -303 -11 -351 2 -186 49 -261
189 -230 429 11 88 57 236 82 266 7 8 13 20 15 25 8 44 169 225 199 225 6 0
10 4 10 8 0 4 24 20 53 35 28 15 59 31 67 36 46 25 170 73 170 66 0 -2 15 2
33 10 17 7 49 16 71 19 21 4 42 8 45 11 4 2 36 7 72 11 35 3 65 7 67 9 7 6
182 2 232 -5z m228 -1705 c17 -10 32 -25 32 -32 0 -7 5 -13 11 -13 5 0 8 -4 4
-9 -3 -5 -1 -12 5 -16 6 -4 8 -10 6 -14 -3 -4 -7 -20 -10 -36 -3 -16 -19 -43
-36 -60 -66 -66 -185 -22 -194 72 -4 32 2 49 25 84 16 24 29 40 29 35 0 -6 5
-5 11 1 16 16 80 10 117 -12z m283 6 c27 -13 66 -69 60 -86 -2 -5 -5 -19 -6
-30 -9 -47 -12 -55 -38 -76 -76 -59 -185 -10 -189 85 -1 41 20 96 37 96 7 0
17 6 24 13 13 17 77 16 112 -2z m300 -6 c54 -42 64 -106 27 -161 -37 -54 -81
-66 -143 -40 -29 12 -69 65 -74 99 -3 19 32 84 55 103 34 28 99 27 135 -1z"/>
<path d="M1885 3261 c-4 -3 -10 -6 -13 -6 -21 -2 -57 -20 -79 -39 -121 -104
-54 -309 105 -323 194 -18 273 250 102 346 -22 12 -40 20 -40 18 0 -3 -16 -1
-34 3 -19 4 -38 5 -41 1z"/>
<path d="M3167 3263 c-3 -2 -11 -6 -19 -7 -40 -8 -68 -19 -68 -27 0 -5 -5 -9
-11 -9 -14 0 -36 -26 -51 -60 -10 -23 -12 -31 -20 -70 -1 -8 1 -34 6 -58 11
-57 80 -129 119 -123 4 0 7 -3 7 -9 0 -18 91 -11 134 11 91 45 127 166 77 256
-13 22 -34 47 -47 54 -13 7 -24 16 -24 21 0 5 -4 6 -10 3 -5 -3 -10 -1 -10 5
0 6 -4 9 -9 6 -4 -3 -22 -1 -39 3 -17 5 -33 7 -35 4z"/>
<path d="M1950 418 c0 -18 45 -105 76 -146 44 -58 102 -122 111 -122 5 0 23
-14 42 -30 18 -17 39 -30 47 -30 7 0 14 -4 16 -8 5 -14 128 -59 192 -71 68
-12 228 -8 269 8 15 6 27 8 27 5 0 -3 12 2 28 10 15 8 50 25 77 37 28 13 61
33 75 46 14 13 29 23 35 24 17 0 145 148 145 167 0 6 5 12 10 12 6 0 10 5 10
10 0 6 9 29 19 50 11 22 16 42 13 44 -14 8 -1192 2 -1192 -6z"/>
</g>
</svg>
