<?xml version="1.0" standalone="no"?>
<!DOCTYPE svg PUBLIC "-//W3C//DTD SVG 20010904//EN"
 "http://www.w3.org/TR/2001/REC-SVG-20010904/DTD/svg10.dtd">
<svg version="1.0" xmlns="http://www.w3.org/2000/svg"
 width="1024.000000pt" height="1024.000000pt" viewBox="0 0 1024.000000 1024.000000"
 preserveAspectRatio="xMidYMid meet">
<metadata>
Created by potrace 1.11, written by Peter Selinger 2001-2013
</metadata>
<g transform="translate(0.000000,1024.000000) scale(0.100000,-0.100000)"
fill="#000000" stroke="none">
<path d="M150 6794 c25 -14 77 -43 115 -63 39 -21 133 -73 210 -116 77 -43
169 -94 205 -113 36 -19 86 -48 113 -63 26 -16 49 -29 51 -29 2 0 39 -20 82
-44 l79 -44 1205 -1 c1099 0 1249 -2 1302 -17 9 -3 26 -7 37 -9 38 -7 79 -44
102 -92 19 -40 23 -63 23 -162 0 -64 -6 -135 -12 -157 -20 -69 -70 -108 -167
-130 -16 -4 -565 -8 -1220 -10 -1347 -2 -1459 -5 -1652 -39 -223 -38 -377
-105 -473 -203 -61 -62 -88 -113 -122 -224 -22 -73 -22 -76 -26 -965 l-3 -893
5121 0 5120 0 0 98 0 99 -4736 0 c-2604 1 -4738 4 -4742 7 -8 8 -5 1394 3
1454 7 49 39 120 64 140 40 32 96 53 174 65 67 11 331 14 1293 14 1113 1 1360
4 1484 19 399 48 570 156 638 407 13 48 16 107 17 262 0 232 -6 289 -39 384
-69 196 -208 316 -451 386 -212 61 -104 58 -2055 62 l-1785 3 45 -26z"/>
<path d="M4640 4679 l0 -589 50 0 50 0 0 133 c0 72 4 137 8 142 6 9 226 196
275 234 15 12 20 12 35 -5 9 -11 68 -78 131 -149 62 -72 132 -150 155 -175 23
-25 68 -75 100 -112 l58 -68 64 0 c35 0 64 2 64 5 0 3 -17 24 -37 47 -48 51
-44 47 -133 148 -41 47 -77 87 -80 90 -3 3 -36 41 -75 85 -38 44 -83 95 -99
112 -16 18 -42 47 -57 64 -15 17 -25 36 -23 43 3 6 24 25 47 43 23 18 56 45
73 61 17 15 65 57 108 91 42 35 76 65 76 66 0 2 -34 3 -76 3 l-76 0 -101 -87
c-56 -47 -158 -134 -227 -191 -69 -57 -141 -119 -160 -137 -19 -18 -38 -33
-42 -33 -5 0 -8 172 -8 383 l0 382 -50 2 -50 1 0 -589z"/>
<path d="M7470 5112 l0 -157 -70 3 -70 3 0 -53 0 -53 70 2 70 2 0 -384 0 -384
48 2 47 2 5 380 5 380 100 2 c55 0 110 2 121 2 19 1 21 7 21 50 l0 49 -91 0
c-50 1 -106 1 -123 1 l-33 1 0 153 0 154 -50 0 -50 1 0 -156z"/>
<path d="M6137 4974 c-1 -1 -45 -4 -97 -7 -102 -6 -149 -21 -192 -60 -81 -75
-89 -220 -15 -304 65 -74 110 -82 502 -87 177 -2 226 -6 250 -18 114 -60 122
-230 15 -292 -32 -19 -53 -20 -308 -21 -337 -1 -360 5 -403 101 -18 39 -21 42
-64 42 -44 1 -45 0 -45 -29 0 -75 85 -168 178 -195 61 -18 371 -25 548 -13
139 10 198 41 246 132 18 33 23 58 23 122 0 69 -4 86 -28 127 -31 53 -72 88
-138 117 -39 17 -75 20 -329 24 -302 5 -333 9 -374 55 -24 27 -29 100 -9 140
29 61 57 66 353 66 146 0 277 -3 292 -7 40 -11 95 -63 108 -102 11 -33 14 -35
56 -35 42 0 44 1 44 30 0 45 -33 102 -85 148 -53 46 -92 58 -206 62 -93 3
-320 6 -322 4z"/>
<path d="M1287 4964 c-1 -1 -26 -5 -56 -8 -87 -10 -151 -60 -193 -151 -22 -48
-23 -61 -23 -280 0 -264 7 -297 77 -360 78 -71 99 -75 428 -75 280 0 325 3
387 30 l42 18 3 -46 c7 -108 -25 -194 -82 -224 -19 -10 -117 -14 -390 -18
l-364 -5 -1 -45 0 -45 360 0 c307 0 367 2 408 16 59 20 100 58 135 124 l27 50
2 390 c2 313 0 401 -12 444 -13 50 -13 56 3 67 9 8 25 14 34 14 28 0 34 19 29
94 -1 19 -46 7 -106 -28 -37 -22 -44 -24 -55 -11 -7 8 -38 23 -69 32 -45 13
-107 16 -319 17 -145 1 -264 1 -265 0z m570 -117 c18 -9 45 -34 60 -54 l28
-36 0 -226 c0 -254 -4 -270 -75 -314 -34 -21 -47 -22 -328 -25 -282 -3 -295
-2 -337 18 -27 13 -53 36 -67 58 -22 35 -23 49 -26 237 -4 213 3 261 41 304
49 53 70 56 383 55 251 0 293 -3 321 -17z"/>
<path d="M2527 4964 c-1 -1 -30 -4 -64 -7 -34 -4 -76 -13 -92 -21 -45 -24 -94
-81 -118 -139 -20 -48 -22 -67 -21 -272 0 -189 3 -227 19 -269 34 -90 113
-150 214 -161 49 -6 514 -6 571 0 119 11 219 107 226 216 l3 44 -46 3 -46 3
-11 -43 c-6 -24 -23 -56 -38 -72 -50 -53 -68 -56 -376 -56 -264 0 -284 1 -324
21 -65 31 -87 75 -92 179 l-4 86 468 0 469 0 -1 149 c-1 170 -12 207 -82 272
-63 57 -113 66 -400 68 -139 0 -254 0 -255 -1z m548 -116 c65 -34 92 -88 94
-190 l2 -78 -43 0 c-55 -1 -642 -1 -730 0 l-68 0 0 74 c0 42 6 89 15 109 16
39 65 85 98 92 47 10 71 10 332 9 225 0 275 -3 300 -16z"/>
<path d="M3767 4964 c-1 -1 -34 -4 -73 -7 -80 -6 -117 -21 -165 -69 -67 -68
-74 -98 -76 -343 -1 -124 2 -241 8 -267 19 -87 115 -169 212 -183 42 -6 530
-6 582 0 104 11 191 81 219 176 22 74 18 84 -40 84 -36 0 -49 -4 -50 -15 -1
-8 -2 -23 -2 -32 -3 -30 -71 -97 -110 -108 -21 -5 -157 -10 -313 -10 -269 0
-277 1 -320 23 -66 35 -89 82 -89 183 l0 80 468 0 467 0 0 139 c0 77 -4 155
-10 174 -5 19 -32 58 -58 87 -44 48 -73 65 -138 80 -21 5 -506 13 -512 8z
m528 -116 c65 -34 88 -80 91 -185 l3 -83 -112 0 c-109 -1 -434 -1 -629 0 l-98
0 0 68 c0 87 13 132 49 166 50 48 76 52 382 50 237 0 289 -3 314 -16z"/>
<path d="M8167 4964 c-1 -1 -27 -4 -57 -7 -103 -8 -168 -55 -212 -152 -21 -47
-22 -62 -22 -285 0 -211 2 -239 19 -275 41 -85 118 -141 206 -150 62 -6 538
-6 574 0 17 3 44 7 61 10 63 11 146 109 168 200 4 16 7 118 7 228 0 239 -9
283 -73 347 -44 44 -81 65 -139 76 -30 6 -526 13 -532 8z m549 -117 c43 -22
82 -71 89 -110 4 -18 5 -124 3 -237 -3 -199 -4 -206 -27 -237 -13 -18 -44 -41
-68 -53 -40 -19 -62 -20 -323 -20 -306 0 -327 3 -375 57 -39 44 -46 89 -45
296 1 179 3 196 23 232 27 46 63 75 108 84 18 4 157 6 308 6 235 -1 281 -4
307 -18z"/>
<path d="M9337 4964 c-1 -1 -28 -4 -60 -7 -31 -3 -73 -14 -93 -26 -43 -26 -44
-26 -39 -1 3 18 -2 20 -48 20 l-52 0 0 -585 c0 -322 2 -585 5 -586 34 -6 90
-3 93 5 2 6 3 89 2 184 0 94 1 172 2 172 1 0 19 -9 40 -20 50 -26 93 -29 378
-29 266 -1 321 3 370 23 66 28 129 116 142 199 8 48 8 359 0 428 -6 56 -27 98
-72 144 -43 43 -77 60 -135 70 -37 7 -526 15 -533 9z m545 -112 c31 -13 64
-46 85 -86 12 -24 15 -69 14 -239 -2 -224 -7 -251 -54 -295 -40 -36 -91 -42
-377 -41 -309 0 -317 2 -374 72 l-30 38 -1 212 c-2 225 3 258 47 305 40 42 87
47 385 46 174 -1 288 -5 305 -12z"/>
<path d="M7089 4164 c-2 -18 -2 -39 0 -61 1 -17 9 -19 87 -14 7 1 11 18 10 44
l-1 42 -47 1 c-34 1 -48 -3 -49 -12z"/>
</g>
</svg>
