<?xml version="1.0" encoding="iso-8859-1"?>
<!-- Generator: Adobe Illustrator 19.0.0, SVG Export Plug-In . SVG Version: 6.00 Build 0)  -->
<svg xmlns="http://www.w3.org/2000/svg" xmlns:xlink="http://www.w3.org/1999/xlink" version="1.1" id="Layer_1" x="0px" y="0px" viewBox="0 0 511.769 511.769" style="enable-background:new 0 0 511.769 511.769;" xml:space="preserve" width="512px" height="512px">
<g>
	<g>
		<path d="M476.127,268.679h-45.694V18.277C430.434,7.311,423.123,0,412.156,0H33.813C22.846,0,15.535,7.311,15.535,18.277v444.142    c0,20.106,14.622,49.35,49.35,49.35h380.171c0,0,0,0,1.828,0c27.417,0,49.35-20.106,49.35-45.694V288.784    C494.404,277.817,487.093,268.679,476.127,268.679z M64.884,475.214c-9.139,0-12.794-5.483-12.794-12.795V36.555h343.616v250.402    V462.42c0,3.655,0,7.311,1.828,12.795L64.884,475.214z M459.677,466.075h-1.827v0.001c0,9.139-10.966,9.139-12.795,9.139    c-7.311,0-12.795-3.655-12.795-12.795V305.233h27.417V466.075z" fill="#D80027"/>
	</g>
</g>
<g>
	<g>
		<path d="M366.462,63.972H81.334c-10.966,0-18.277,7.311-18.277,18.277v78.593c0,10.966,7.311,18.277,18.277,18.277h285.128    c10.966,0,18.277-7.311,18.277-18.277V82.249C384.74,71.283,375.601,63.972,366.462,63.972z M348.185,142.564H99.611v-42.039    h248.573V142.564z" fill="#D80027"/>
	</g>
</g>
<g>
	<g>
		<path d="M190.999,332.65H81.334c-10.966,0-18.277,7.311-18.277,18.277v63.972c0,10.966,7.311,18.277,18.277,18.277h111.493    c10.966,0,18.277-7.311,18.277-18.277v-63.972C209.276,339.961,201.965,332.65,190.999,332.65z M174.549,396.621h-1.828h-73.11    v-27.417h74.938V396.621z" fill="#D80027"/>
	</g>
</g>
<g>
	<g>
		<path d="M366.462,206.536H81.334c-10.966,0-18.277,7.311-18.277,18.277s7.311,18.277,18.277,18.277h285.128    c10.966,0,18.277-7.311,18.277-18.277S375.601,206.536,366.462,206.536z" fill="#D80027"/>
	</g>
</g>
<g>
	<g>
		<path d="M366.462,268.679H81.334c-10.966,0-18.277,7.311-18.277,18.277c0,10.966,7.311,18.277,18.277,18.277h285.128    c10.966,0,18.277-7.311,18.277-18.277C384.74,277.817,375.601,268.679,366.462,268.679z" fill="#D80027"/>
	</g>
</g>
<g>
	<g>
		<path d="M366.462,332.65H254.969c-10.966,0-18.277,7.311-18.277,18.277s7.311,18.277,18.277,18.277h111.493    c10.966,0,18.277-7.311,18.277-18.277S375.601,332.65,366.462,332.65z" fill="#D80027"/>
	</g>
</g>
<g>
	<g>
		<path d="M366.462,396.621H254.969c-10.966,0-18.277,7.311-18.277,18.277s7.311,18.277,18.277,18.277h111.493    c10.966,0,18.277-7.311,18.277-18.277S375.601,396.621,366.462,396.621z" fill="#D80027"/>
	</g>
</g>
<g>
</g>
<g>
</g>
<g>
</g>
<g>
</g>
<g>
</g>
<g>
</g>
<g>
</g>
<g>
</g>
<g>
</g>
<g>
</g>
<g>
</g>
<g>
</g>
<g>
</g>
<g>
</g>
<g>
</g>
</svg>
